<svg width="64" height="64" viewBox="0 0 64 64" fill="none" xmlns="http://www.w3.org/2000/svg">
<path d="M32 42C28.14 42 25 38.86 25 35C25 31.14 28.14 28 32 28C35.86 28 39 31.14 39 35C39 38.86 35.86 42 32 42ZM32 30C29.24 30 27 32.24 27 35C27 37.76 29.24 40 32 40C34.76 40 37 37.76 37 35C37 32.24 34.76 30 32 30Z" fill="#F3F3F9"/>
<path d="M17 57.8299C16.82 57.8299 16.64 57.7799 16.48 57.6899C7.41 52.1999 2 42.5999 2 31.9999C2 22.4099 6.64 13.3199 14.41 7.69993C14.86 7.36993 15.48 7.47993 15.81 7.91993C16.13 8.36993 16.03 8.98993 15.59 9.31993C8.34 14.5699 4 23.0499 4 31.9999C4 41.8899 9.05 50.8499 17.52 55.9699C17.99 56.2599 18.14 56.8699 17.86 57.3399C17.67 57.6499 17.34 57.8199 17 57.8199V57.8299Z" fill="#F3F3F9"/>
<path d="M47.0004 57.8301C46.6604 57.8301 46.3304 57.6601 46.1404 57.3501C45.8504 56.8801 46.0104 56.2601 46.4804 55.9801C54.9404 50.8501 60.0004 41.8901 60.0004 32.0101C60.0004 23.0601 55.6704 14.5801 48.4104 9.3301C47.9604 9.0101 47.8604 8.3801 48.1904 7.9301C48.5204 7.4801 49.1404 7.3801 49.5904 7.7101C57.3604 13.3301 62.0004 22.4201 62.0004 32.0101C62.0004 42.6001 56.5904 52.2001 47.5204 57.7001C47.3604 57.8001 47.1804 57.8401 47.0004 57.8401V57.8301Z" fill="#F3F3F9"/>
<path d="M17.32 49.39C17.08 49.39 16.84 49.31 16.65 49.13C11.79 44.77 9 38.52 9 32C9 26.67 10.86 21.49 14.23 17.39C14.58 16.96 15.21 16.9 15.64 17.25C16.07 17.6 16.13 18.23 15.78 18.66C12.7 22.4 11.01 27.13 11.01 31.99C11.01 37.95 13.56 43.65 18 47.64C18.41 48.01 18.45 48.64 18.08 49.05C17.88 49.27 17.61 49.38 17.34 49.38L17.32 49.39Z" fill="#BAC1ED"/>
<path d="M46.6798 49.39C46.4098 49.39 46.1298 49.28 45.9398 49.06C45.5698 48.65 45.6098 48.02 46.0198 47.65C50.4598 43.66 53.0098 37.96 53.0098 32C53.0098 27.14 51.3198 22.4 48.2398 18.67C47.8898 18.24 47.9498 17.61 48.3798 17.26C48.8098 16.91 49.4398 16.97 49.7898 17.4C53.1598 21.49 55.0198 26.68 55.0198 32.01C55.0198 38.53 52.2298 44.78 47.3698 49.14C47.1798 49.31 46.9398 49.4 46.6998 49.4L46.6798 49.39Z" fill="#BAC1ED"/>
<path d="M21.18 43.37C20.92 43.37 20.66 43.27 20.46 43.06C17.58 40.07 16 36.14 16 32C16 29.23 16.72 26.51 18.07 24.13C18.34 23.65 18.95 23.48 19.43 23.76C19.91 24.03 20.08 24.64 19.8 25.12C18.62 27.19 17.99 29.57 17.99 31.99C17.99 35.62 19.37 39.05 21.89 41.67C22.27 42.07 22.26 42.7 21.86 43.08C21.67 43.27 21.42 43.36 21.17 43.36L21.18 43.37Z" fill="#BAC1ED"/>
<path d="M42.82 43.37C42.57 43.37 42.32 43.28 42.13 43.09C41.73 42.71 41.72 42.07 42.1 41.68C44.62 39.07 46 35.63 46 32C46 29.57 45.38 27.2 44.19 25.13C43.92 24.65 44.08 24.04 44.56 23.77C45.04 23.49 45.65 23.66 45.92 24.14C47.28 26.51 47.99 29.23 47.99 32.01C47.99 36.16 46.41 40.09 43.53 43.07C43.33 43.27 43.07 43.38 42.81 43.38L42.82 43.37Z" fill="#BAC1ED"/>
<path d="M32 62C28.06 62 24.23 61.24 20.62 59.75C20.25 59.6 20 59.23 20 58.83V51C20 46.59 23.59 43 28 43C28.27 43 28.52 43.11 28.71 43.29L32 46.58L35.29 43.29C35.48 43.1 35.73 43 36 43C40.41 43 44 46.59 44 51V58.83C44 59.23 43.76 59.6 43.38 59.75C39.77 61.24 35.94 62 32 62ZM22 58.15C28.37 60.6 35.63 60.6 42 58.15V51C42 47.83 39.52 45.22 36.4 45.01L32.71 48.7C32.32 49.09 31.69 49.09 31.3 48.7L27.61 45.01C24.49 45.22 22.01 47.82 22.01 51V58.15H22Z" fill="#F3F3F9"/>
<path d="M32 26C31.69 26 31.39 25.85 31.2 25.6L28.5 22H21C19.35 22 18 20.65 18 19V5C18 3.35 19.35 2 21 2H43C44.65 2 46 3.35 46 5V19C46 20.65 44.65 22 43 22H35.5L32.8 25.6C32.61 25.85 32.31 26 32 26ZM21 4C20.45 4 20 4.45 20 5V19C20 19.55 20.45 20 21 20H29C29.31 20 29.61 20.15 29.8 20.4L32 23.33L34.2 20.4C34.39 20.15 34.69 20 35 20H43C43.55 20 44 19.55 44 19V5C44 4.45 43.55 4 43 4H21Z" fill="#BAC1ED"/>
<path d="M33 10H25C24.45 10 24 9.55 24 9C24 8.45 24.45 8 25 8H33C33.55 8 34 8.45 34 9C34 9.55 33.55 10 33 10Z" fill="#F3F3F9"/>
<path d="M39 16H25C24.45 16 24 15.55 24 15C24 14.45 24.45 14 25 14H39C39.55 14 40 14.45 40 15C40 15.55 39.55 16 39 16Z" fill="#F3F3F9"/>
</svg>
