<svg width="64" height="64" viewBox="0 0 64 64" fill="none" xmlns="http://www.w3.org/2000/svg">
<path d="M18.1599 61.9999C18.0699 61.9999 17.9899 61.9899 17.8999 61.9699C17.6399 61.8999 17.4199 61.7299 17.2899 61.4999L10.9399 50.4699C10.6599 49.9899 10.8299 49.3799 11.3099 49.1099L16.0199 46.3799C16.2499 46.2499 16.5199 46.2099 16.7799 46.2799C17.0399 46.3499 17.2599 46.5199 17.3899 46.7499L21.7399 54.2999C23.1199 56.6899 22.2999 59.7599 19.9099 61.1399L18.6599 61.8599C18.5099 61.9499 18.3299 61.9899 18.1599 61.9899V61.9999ZM13.1799 50.3399L18.5299 59.6299L18.9099 59.4099C20.3399 58.5799 20.8399 56.7299 20.0099 55.2899L16.1599 48.6099L13.1799 50.3399Z" fill="#BAC1ED"/>
<path d="M49.9997 19C49.1697 19 48.3497 18.71 47.6897 18.13L39.3397 10.75C38.9297 10.38 38.8897 9.74996 39.2497 9.33996C39.6197 8.92996 40.2497 8.88996 40.6597 9.24996L49.0097 16.63C49.5697 17.13 50.4197 17.13 50.9797 16.63L59.3297 9.24996C59.7497 8.88996 60.3797 8.91996 60.7397 9.33996C61.1097 9.74996 61.0697 10.39 60.6497 10.75L52.2997 18.13C51.6397 18.71 50.8197 19 49.9897 19H49.9997Z" fill="#BAC1ED"/>
<path d="M39.8701 42.13L35.3201 34.23C36.8901 32.79 37.3101 30.41 36.2101 28.49C35.5901 27.42 34.5901 26.65 33.4001 26.33C32.5401 26.1 31.6501 26.13 30.8201 26.39L26.2701 18.49C26.0001 18.01 25.3801 17.85 24.9001 18.12C24.4201 18.39 24.2601 19.01 24.5301 19.49L25.0701 20.42L12.6901 33.59L4.5001 38.33C2.1101 39.71 1.2901 42.78 2.6701 45.17L5.0201 49.25C5.6901 50.41 6.7701 51.24 8.0601 51.59C8.4901 51.71 8.9301 51.76 9.3601 51.76C10.2301 51.76 11.0801 51.53 11.8501 51.09L20.0401 46.35L37.6001 42.19L38.1401 43.12C38.3201 43.44 38.6601 43.62 39.0101 43.62C39.1801 43.62 39.3501 43.58 39.5101 43.49C39.9901 43.21 40.1501 42.6 39.8801 42.12L39.8701 42.13ZM32.8801 28.26C33.5601 28.44 34.1301 28.88 34.4801 29.49C35.0301 30.44 34.9101 31.6 34.2801 32.42L31.8501 28.2C32.1901 28.15 32.5401 28.17 32.8801 28.27V28.26ZM10.8501 49.37C10.1601 49.77 9.3501 49.87 8.5801 49.67C7.8001 49.46 7.1601 48.96 6.7601 48.27L4.4101 44.19C3.5801 42.75 4.0801 40.9 5.5101 40.07L12.9601 35.76L18.3101 45.05L10.8601 49.37H10.8501ZM20.1601 44.27L15.8301 36.76L14.5501 34.53L26.1101 22.23L36.5601 40.38L20.1601 44.27Z" fill="#F3F3F9"/>
<path d="M19 20H5C3.35 20 2 18.65 2 17V5C2 3.35 3.35 2 5 2H19C20.65 2 22 3.35 22 5V17C22 18.65 20.65 20 19 20ZM5 4C4.45 4 4 4.45 4 5V17C4 17.55 4.45 18 5 18H19C19.55 18 20 17.55 20 17V5C20 4.45 19.55 4 19 4H5Z" fill="#BAC1ED"/>
<path d="M9 15.5599C8.82 15.5599 8.64 15.5099 8.48 15.4099C8.18 15.2299 8 14.9099 8 14.5599V7.44991C8 7.09991 8.18 6.77991 8.48 6.59991C8.78 6.41991 9.15 6.39991 9.46 6.55991L16.46 10.1199C16.79 10.2899 17.01 10.6399 17.01 11.0099C17.01 11.3799 16.8 11.7299 16.46 11.8999L9.46 15.4599C9.32 15.5299 9.16 15.5699 9.01 15.5699L9 15.5599ZM10 9.07991V12.9299L13.79 10.9999L10 9.06991V9.07991Z" fill="#F3F3F9"/>
<path d="M58 25H42C39.79 25 38 23.21 38 21V11C38 8.79 39.79 7 42 7H58C60.21 7 62 8.79 62 11V21C62 23.21 60.21 25 58 25ZM42 9C40.9 9 40 9.9 40 11V21C40 22.1 40.9 23 42 23H58C59.1 23 60 22.1 60 21V11C60 9.9 59.1 9 58 9H42Z" fill="#F3F3F9"/>
<path d="M51 62C44.93 62 40 57.07 40 51C40 44.93 44.93 40 51 40C57.07 40 62 44.93 62 51C62 57.07 57.07 62 51 62ZM51 42C46.04 42 42 46.04 42 51C42 55.96 46.04 60 51 60C55.96 60 60 55.96 60 51C60 46.04 55.96 42 51 42Z" fill="#F3F3F9"/>
<path d="M51.0004 57.0001C50.7304 57.0001 50.4704 56.8901 50.2804 56.6901L46.0304 52.2701C44.6604 50.8401 44.6604 48.5201 46.0304 47.0901C47.3504 45.7201 49.6404 45.6701 51.0004 46.9701C52.3604 45.6701 54.6504 45.7101 55.9704 47.0901C57.3404 48.5201 57.3404 50.8401 55.9704 52.2701L51.7204 56.6901C51.5304 56.8901 51.2704 57.0001 51.0004 57.0001ZM48.5704 48.0001C48.1604 48.0001 47.7704 48.1701 47.4704 48.4801C46.8304 49.1401 46.8304 50.2201 47.4704 50.8901L50.9904 54.5601L54.5104 50.8901C55.1504 50.2301 55.1504 49.1501 54.5104 48.4801C53.9204 47.8601 52.9004 47.8701 52.3104 48.4801C52.1404 48.6501 52.0204 48.8701 51.9304 49.1301C51.8004 49.5401 51.4104 49.8201 50.9804 49.8201C50.5504 49.8201 50.1604 49.5401 50.0304 49.1301C49.9504 48.8701 49.8204 48.6501 49.6504 48.4801C49.3504 48.1701 48.9604 48.0001 48.5504 48.0001H48.5704Z" fill="#BAC1ED"/>
</svg>
