<svg width="64" height="64" viewBox="0 0 64 64" fill="none" xmlns="http://www.w3.org/2000/svg">
<path d="M36 32C36 31.45 35.55 31 35 31C34.45 31 34 31.45 34 32C34 37.51 29.51 42 24 42C18.49 42 14 37.51 14 32C14 26.49 18.49 22 24 22C24.55 22 25 21.55 25 21C25 20.45 24.55 20 24 20C17.72 20 12.56 24.85 12.05 31H9C8.45 31 8 31.45 8 32C8 32.55 8.45 33 9 33H12.05C12.53 38.82 17.18 43.47 23 43.95V47C23 47.55 23.45 48 24 48C24.55 48 25 47.55 25 47V43.95C31.15 43.44 36 38.28 36 32Z" fill="#BAC1ED"/>
<path d="M57 57H7C4.24 57 2 54.76 2 52V12C2 9.24 4.24 7 7 7H47C47.27 7 47.52 7.11 47.71 7.29L61.71 21.29C61.9 21.48 62 21.73 62 22V52C62 54.76 59.76 57 57 57ZM7 9C5.35 9 4 10.35 4 12V52C4 53.65 5.35 55 7 55H57C58.65 55 60 53.65 60 52V22.41L46.59 9H7Z" fill="#F3F3F9"/>
<path d="M61 23H47C46.45 23 46 22.55 46 22V7.99999C46 7.59999 46.24 7.22999 46.62 7.07999C46.99 6.91999 47.42 7.00999 47.71 7.29999L61.71 21.3C62 21.59 62.08 22.02 61.93 22.39C61.78 22.76 61.41 23.01 61.01 23.01L61 23ZM48 21H58.59L48 10.41V21Z" fill="#BAC1ED"/>
<path d="M43.87 29.7101C42.83 20.5601 35.43 13.1701 26.29 12.1301C25.47 12.0301 24.64 12.3001 24.01 12.8601C23.37 13.4301 23 14.2601 23 15.1201V16.0501C14.64 16.5701 8 23.5101 8 32.0001C8 40.4901 15.18 48.0001 24 48.0001C32.82 48.0001 39.43 41.3601 39.95 33.0001H40.88C41.74 33.0001 42.56 32.6301 43.14 31.9901C43.7 31.3701 43.96 30.5401 43.87 29.7101ZM24 46.0001C16.28 46.0001 10 39.7201 10 32.0001C10 24.2801 15.75 18.5701 23 18.0501V30.0001C23 31.6501 24.35 33.0001 26 33.0001H37.95C37.43 40.2501 31.38 46.0001 24 46.0001ZM41.65 30.6601C41.46 30.8801 41.18 31.0001 40.89 31.0001H26.01C25.46 31.0001 25.01 30.5501 25.01 30.0001V15.1201C25.01 14.8301 25.13 14.5501 25.35 14.3601C25.46 14.2701 25.67 14.1201 25.96 14.1201H26.06C34.29 15.0601 40.95 21.7101 41.88 29.9401C41.92 30.2901 41.75 30.5401 41.64 30.6601H41.65Z" fill="#F3F3F9"/>
<path d="M55 51H41C40.45 51 40 50.55 40 50C40 49.45 40.45 49 41 49H55C55.55 49 56 49.45 56 50C56 50.55 55.55 51 55 51Z" fill="#BAC1ED"/>
<path d="M55 47H41C40.45 47 40 46.55 40 46C40 45.45 40.45 45 41 45H55C55.55 45 56 45.45 56 46C56 46.55 55.55 47 55 47Z" fill="#BAC1ED"/>
<path d="M46 43H41C40.45 43 40 42.55 40 42C40 41.45 40.45 41 41 41H46C46.55 41 47 41.45 47 42C47 42.55 46.55 43 46 43Z" fill="#BAC1ED"/>
</svg>
