<svg width="64" height="64" viewBox="0 0 64 64" fill="none" xmlns="http://www.w3.org/2000/svg">
<path d="M22.3099 33.3099C22.0499 33.3099 21.7999 33.2099 21.5999 33.0199L14.8599 26.2799C14.4699 25.8899 14.4699 25.2599 14.8599 24.8699C15.2499 24.4799 15.8799 24.4799 16.2699 24.8699L23.0099 31.6099C23.3999 31.9999 23.3999 32.6299 23.0099 33.0199C22.8099 33.2199 22.5599 33.3099 22.2999 33.3099H22.3099Z" fill="#BAC1ED"/>
<path d="M38.4298 49.43C38.1698 49.43 37.9198 49.33 37.7198 49.14L30.9898 42.41C30.5998 42.02 30.5998 41.39 30.9898 41C31.3798 40.61 32.0098 40.61 32.3998 41L39.1298 47.73C39.5198 48.12 39.5198 48.75 39.1298 49.14C38.9298 49.34 38.6798 49.43 38.4198 49.43H38.4298Z" fill="#BAC1ED"/>
<path d="M42.8297 19.94C41.7497 16.52 38.5997 14.22 34.9997 14.22C31.3997 14.22 28.2497 16.52 27.1697 19.94C26.9997 20.47 27.2897 21.03 27.8197 21.19C28.3497 21.36 28.9097 21.07 29.0797 20.54C29.8997 17.95 32.2797 16.22 34.9997 16.22C37.7197 16.22 40.1097 17.96 40.9197 20.54C41.0497 20.97 41.4497 21.24 41.8697 21.24C41.9697 21.24 42.0697 21.23 42.1697 21.19C42.6997 21.02 42.9897 20.46 42.8197 19.94H42.8297Z" fill="#BAC1ED"/>
<path d="M34.9997 12.8901C37.0797 12.8901 38.7797 11.2001 38.7797 9.11008C38.7797 7.02008 37.0897 5.33008 34.9997 5.33008C32.9097 5.33008 31.2197 7.03008 31.2197 9.11008C31.2197 11.1901 32.9097 12.8901 34.9997 12.8901ZM34.9997 7.33008C35.9797 7.33008 36.7797 8.13008 36.7797 9.11008C36.7797 10.0901 35.9797 10.8901 34.9997 10.8901C34.0197 10.8901 33.2197 10.0901 33.2197 9.11008C33.2197 8.13008 34.0197 7.33008 34.9997 7.33008Z" fill="#BAC1ED"/>
<path d="M19.17 61.9999C14.58 61.9999 10.27 60.2099 7.03 56.9699C3.79 53.7299 2 49.4199 2 44.8299C2 40.2399 3.79 35.9299 7.03 32.6899L19.43 20.2899C19.81 19.9099 20.47 19.9099 20.84 20.2899L27.58 27.0299C27.77 27.2199 27.87 27.4699 27.87 27.7399C27.87 28.0099 27.76 28.2599 27.58 28.4499L15.14 40.8799C14.07 41.9499 13.49 43.3599 13.49 44.8699C13.49 46.3799 14.08 47.7899 15.14 48.8599C16.21 49.9299 17.62 50.5099 19.13 50.5099C20.64 50.5099 22.05 49.9199 23.12 48.8599L35.56 36.4299C35.95 36.0399 36.58 36.0399 36.97 36.4299L43.7 43.1599C43.89 43.3499 43.99 43.5999 43.99 43.8699C43.99 44.1399 43.88 44.3899 43.7 44.5799L31.3 56.9799C28.06 60.2199 23.75 62.0099 19.16 62.0099L19.17 61.9999ZM20.14 22.4099L8.45 34.1099C2.54 40.0199 2.54 49.6499 8.45 55.5599C11.31 58.4199 15.12 59.9999 19.17 59.9999C23.22 59.9999 27.03 58.4199 29.89 55.5599L41.59 43.8599L36.27 38.5399L24.54 50.2599C23.1 51.6999 21.18 52.4999 19.14 52.4999C17.1 52.4999 15.18 51.7099 13.74 50.2599C12.3 48.8199 11.5 46.8999 11.5 44.8599C11.5 42.8199 12.29 40.8999 13.74 39.4599L25.47 27.7399L20.14 22.4099Z" fill="#F3F3F9"/>
<path d="M35 24C32.16 24 29.48 22.92 27.43 20.97C25.25 18.92 24 16.01 24 13C24 6.93 28.93 2 35 2C41.07 2 46 6.93 46 13C46 16.01 44.75 18.92 42.56 20.97C40.52 22.92 37.83 24 35 24ZM35 4C30.04 4 26 8.04 26 13C26 15.46 27.02 17.83 28.81 19.52C30.49 21.12 32.68 22 35 22C37.32 22 39.52 21.12 41.19 19.52C42.98 17.83 44 15.46 44 13C44 8.04 39.96 4 35 4Z" fill="#F3F3F9"/>
<path d="M59.1401 39.22C58.1501 36.1 55.2801 34 52.0001 34C48.7201 34 45.8501 36.1 44.8601 39.22C44.6901 39.75 44.9801 40.31 45.5101 40.47C46.0401 40.64 46.6001 40.35 46.7701 39.82C47.4901 37.53 49.6001 36 52.0101 36C54.4201 36 56.5201 37.54 57.2501 39.82C57.3801 40.25 57.7801 40.52 58.2001 40.52C58.3001 40.52 58.4001 40.51 58.5001 40.47C59.0301 40.3 59.3201 39.74 59.1501 39.22H59.1401Z" fill="#F3F3F9"/>
<path d="M52 33C53.93 33 55.5 31.43 55.5 29.5C55.5 27.57 53.93 26 52 26C50.07 26 48.5 27.57 48.5 29.5C48.5 31.43 50.07 33 52 33ZM52 28C52.83 28 53.5 28.67 53.5 29.5C53.5 30.33 52.83 31 52 31C51.17 31 50.5 30.33 50.5 29.5C50.5 28.67 51.17 28 52 28Z" fill="#F3F3F9"/>
<path d="M57.9998 57.0001C57.6298 57.0001 57.2798 56.8001 57.0998 56.4501L54.7198 51.6901L52.6998 53.7101C52.4698 53.9401 52.1498 54.0401 51.8298 53.9901C51.5098 53.9401 51.2398 53.7401 51.0998 53.4501L48.0998 47.4501C47.8498 46.9601 48.0498 46.3601 48.5498 46.1101C49.0498 45.8601 49.6498 46.0601 49.8898 46.5601L52.2698 51.3201L54.2898 49.3001C54.5198 49.0701 54.8398 48.9701 55.1598 49.0201C55.4798 49.0701 55.7498 49.2701 55.8898 49.5601L58.8898 55.5601C59.1398 56.0501 58.9398 56.6501 58.4398 56.9001C58.2998 56.9701 58.1398 57.0101 57.9898 57.0101L57.9998 57.0001Z" fill="#F3F3F9"/>
<path d="M14.5003 17.86C14.4003 17.86 14.2903 17.84 14.1803 17.81C13.6603 17.64 13.3703 17.07 13.5503 16.55L15.2303 11.5H12.3803C12.0603 11.5 11.7603 11.35 11.5703 11.08C11.3803 10.81 11.3303 10.48 11.4303 10.18L13.5503 3.82C13.7203 3.3 14.2903 3.01 14.8203 3.19C15.3403 3.36 15.6303 3.93 15.4503 4.45L13.7703 9.5H16.6203C16.9403 9.5 17.2403 9.65 17.4303 9.92C17.6203 10.19 17.6703 10.52 17.5703 10.82L15.4503 17.18C15.3103 17.6 14.9203 17.86 14.5003 17.86Z" fill="#BAC1ED"/>
<path d="M52 43C49.42 43 46.98 42.02 45.12 40.24C43.14 38.37 42 35.73 42 33C42 27.49 46.49 23 52 23C57.51 23 62 27.49 62 33C62 35.74 60.86 38.38 58.88 40.25C57.03 42.02 54.58 43 52 43ZM52 25C47.59 25 44 28.59 44 33C44 35.19 44.91 37.3 46.5 38.79C47.99 40.22 49.94 41 52 41C54.06 41 56.01 40.22 57.5 38.8C59.09 37.3 60 35.19 60 33C60 28.59 56.41 25 52 25Z" fill="#BAC1ED"/>
</svg>
